<?xml version="1.0" encoding="utf-8"?>
<!-- Generator: Adobe Illustrator 18.1.1, SVG Export Plug-In . SVG Version: 6.00 Build 0)  -->
<!DOCTYPE svg PUBLIC "-//W3C//DTD SVG 1.1//EN" "http://www.w3.org/Graphics/SVG/1.1/DTD/svg11.dtd">
<svg version="1.1" id="Layer_1" xmlns="http://www.w3.org/2000/svg" xmlns:xlink="http://www.w3.org/1999/xlink" x="0px" y="0px"
	 width="375px" height="375px" viewBox="8 65 375 375" enable-background="new 8 65 375 375" xml:space="preserve">
<g>
	<path fill="none" d="M252,253.2c0,31.5-25.5,57-57,57c-31.5,0-57-25.5-57-57c0-12.3,3.9-23.7,10.6-33H83.7v100
		c0,24.4,19.7,44.1,44.1,44.1h134.8c24.4,0,44.1-19.7,44.1-44.1v-100h-65.1C248.1,229.4,252,240.8,252,253.2z"/>
	<path fill="none" d="M262.5,140.1H142v55.6h-9v-55.6h-5.2c-0.3,0-0.7,0-1,0v55.6h-9v-54.4c-2.2,0.5-4.3,1.2-6.4,2v52.4h-9v-47.5
		c-11.3,8-18.6,21.1-18.6,36v29h70.7c10.3-10.5,24.7-17,40.6-17c15.9,0,30.3,6.5,40.6,17h71v-29
		C306.6,159.8,286.9,140.1,262.5,140.1z M286.5,165.6V190c0,3.9-3.2,7.1-7.1,7.1h-23.8c-3.9,0-7.1-3.2-7.1-7.1v-24.4
		c0-3.9,3.2-7.1,7.1-7.1h23.8C283.3,158.5,286.5,161.7,286.5,165.6L286.5,165.6z"/>
	<path fill="none" d="M195,297.1c24.2,0,43.9-19.7,43.9-43.9c0-13.2-5.8-25-15-33c-3.2-2.8-6.9-5.2-10.8-7
		c-5.5-2.5-11.7-3.9-18.1-3.9c-6.5,0-12.6,1.4-18.1,3.9c-4,1.8-7.6,4.2-10.8,7c-9.2,8.1-15,19.9-15,33
		C151,277.4,170.8,297.1,195,297.1z M195.1,220.7c17.9,0,32.5,14.5,32.5,32.5c0,17.9-14.5,32.5-32.5,32.5s-32.5-14.5-32.5-32.5
		C162.7,235.2,177.2,220.7,195.1,220.7z"/>
	<circle fill="#656668" cx="195.1" cy="253.2" r="32.5"/>
	<g>
		<path fill="none" d="M252,253.2c0,31.5-25.5,57-57,57c-31.5,0-57-25.5-57-57c0-12.3,3.9-23.7,10.6-33H83.7v100
			c0,24.4,19.7,44.1,44.1,44.1h134.8c24.4,0,44.1-19.7,44.1-44.1v-100h-65.1C248.1,229.4,252,240.8,252,253.2z"/>
		<path fill="none" d="M195,297.1c24.2,0,43.9-19.7,43.9-43.9c0-13.2-5.8-25-15-33c-3.2-2.8-6.9-5.2-10.8-7
			c-5.5-2.5-11.7-3.9-18.1-3.9c-6.5,0-12.6,1.4-18.1,3.9c-4,1.8-7.6,4.2-10.8,7c-9.2,8.1-15,19.9-15,33
			C151,277.4,170.8,297.1,195,297.1z"/>
		<path fill="none" d="M262.5,140.1H142v55.6h-9v-55.6h-5.2c-0.3,0-0.7,0-1,0v55.6h-9v-54.4c-2.2,0.5-4.3,1.2-6.4,2v52.4h-9v-47.5
			c-11.3,8-18.6,21.1-18.6,36v29h70.7c10.3-10.5,24.7-17,40.6-17c15.9,0,30.3,6.5,40.6,17h71v-29
			C306.6,159.8,286.9,140.1,262.5,140.1z M286.5,165.6V190c0,3.9-3.2,7.1-7.1,7.1h-23.8c-3.9,0-7.1-3.2-7.1-7.1v-24.4
			c0-3.9,3.2-7.1,7.1-7.1h23.8C283.3,158.5,286.5,161.7,286.5,165.6L286.5,165.6z"/>
		<path fill="#656668" d="M195.1,64.6C91.6,64.6,7.6,148.6,7.6,252.1s83.9,187.5,187.5,187.5s187.5-83.9,187.5-187.5
			S298.7,64.6,195.1,64.6z M306.6,320.1c0,24.4-19.7,44.1-44.1,44.1H127.8c-24.4,0-44.1-19.7-44.1-44.1v-100h64.8
			c-6.6,9.3-10.6,20.7-10.6,33c0,31.5,25.5,57,57,57c31.5,0,57-25.5,57-57c0-12.3-3.9-23.7-10.6-33h65.1V320.1z M151,253.2
			c0-13.2,5.8-25,15-33c3.2-2.8,6.9-5.2,10.8-7c5.5-2.5,11.7-3.9,18.1-3.9c6.5,0,12.6,1.4,18.1,3.9c4,1.8,7.6,4.2,10.8,7
			c9.2,8.1,15,19.9,15,33c0,24.2-19.7,43.9-43.9,43.9C170.8,297.1,151,277.4,151,253.2z M306.6,213.1h-71
			c-10.3-10.5-24.7-17-40.6-17c-15.9,0-30.3,6.5-40.6,17H83.7v-29c0-14.9,7.4-28,18.6-36v47.5h9v-52.4c2.1-0.8,4.2-1.5,6.4-2v54.4h9
			v-55.6c0.3,0,0.7,0,1,0h5.2v55.6h9v-55.6h120.5c24.4,0,44.1,19.7,44.1,44.1V213.1z"/>
		<path fill="#656668" d="M279.4,158.5h-23.8c-3.9,0-7.1,3.2-7.1,7.1V190c0,3.9,3.2,7.1,7.1,7.1h23.8c3.9,0,7.1-3.2,7.1-7.1v-24.4h0
			C286.5,161.7,283.3,158.5,279.4,158.5z"/>
	</g>
</g>
</svg>
