<?xml version="1.0" encoding="utf-8"?>
<!-- Generator: Adobe Illustrator 19.0.1, SVG Export Plug-In . SVG Version: 6.00 Build 0)  -->
<svg version="1.1" id="Layer_1" xmlns="http://www.w3.org/2000/svg" xmlns:xlink="http://www.w3.org/1999/xlink" x="0px" y="0px"
	 viewBox="-241 377.5 128.8 39.5" style="enable-background:new -241 377.5 128.8 39.5;" xml:space="preserve">
<style type="text/css">
	.st0{fill:#F04E58;}
	.st1{fill:none;stroke:#FFFFFF;stroke-width:2;stroke-linecap:round;stroke-linejoin:round;stroke-miterlimit:10;}
	.st2{fill:#FFFFFF;}
</style>
<polygon class="st0" points="-241,416.9 -226,397.1 -240.9,377.5 -112.2,377.5 -112.2,417 "/>
<g>
	<path class="st1" d="M-149.3,388.1c7.4-5.2,18.7-3.9,24.9-0.7"/>
	<path class="st1" d="M-126.1,381.4c3.1,3.3,4.6,5,5.9,8.1c-2.8,1-5.5,2.1-8.2,3.4"/>
</g>
<g>
	<g>
		<path class="st2" d="M-190.8,389.6c0-0.4-0.1-0.8-0.3-1.1c-0.2-0.3-0.6-0.5-1.2-0.8c-1.2-0.4-2.1-0.9-2.7-1.4s-0.9-1.3-0.9-2.2
			s0.3-1.7,1-2.3c0.7-0.6,1.6-0.9,2.6-0.9c1.1,0,2,0.3,2.6,1c0.7,0.7,1,1.5,1,2.5l0,0h-2.2c0-0.5-0.1-0.9-0.4-1.3
			c-0.3-0.3-0.6-0.5-1.1-0.5c-0.4,0-0.8,0.1-1,0.4s-0.4,0.6-0.4,1s0.1,0.7,0.4,0.9c0.3,0.2,0.8,0.5,1.4,0.8c1.1,0.4,1.9,0.8,2.4,1.4
			s0.8,1.3,0.8,2.3s-0.3,1.8-1,2.3c-0.7,0.6-1.5,0.8-2.6,0.8c-1.1,0-2-0.3-2.8-0.9s-1.2-1.5-1.2-2.7l0,0h2.2c0,0.7,0.1,1.2,0.4,1.5
			c0.3,0.3,0.7,0.5,1.3,0.5c0.5,0,0.8-0.1,1-0.4S-190.8,390-190.8,389.6z"/>
		<path class="st2" d="M-179.3,392.6h-2.2v-4.7h-3.5v4.7h-2.2v-11.4h2.2v4.9h3.5v-4.9h2.2V392.6z"/>
		<path class="st2" d="M-172.4,390.1h-3l-0.6,2.5h-2.2l3.2-11.4h2.3l3.2,11.4h-2.2L-172.4,390.1z M-174.9,388.4h2.1l-1-4l0,0
			L-174.9,388.4z"/>
		<path class="st2" d="M-166.3,388.1v4.5h-2.2v-11.4h3.7c1.1,0,2,0.3,2.6,0.9c0.6,0.6,1,1.4,1,2.5c0,0.6-0.1,1.1-0.4,1.5
			s-0.7,0.8-1.2,1c0.6,0.2,1,0.5,1.3,1s0.4,1,0.4,1.7v0.8c0,0.3,0,0.6,0.1,1s0.2,0.6,0.4,0.8v0.2h-2.3c-0.2-0.2-0.3-0.4-0.3-0.8
			c0-0.4-0.1-0.8-0.1-1.1v-0.8c0-0.6-0.1-1-0.3-1.3c-0.2-0.3-0.6-0.5-1-0.5C-164.6,388.1-166.3,388.1-166.3,388.1z M-166.3,386.3
			h1.5c0.5,0,0.8-0.1,1-0.4c0.2-0.3,0.4-0.7,0.4-1.2s-0.1-0.9-0.4-1.2c-0.2-0.3-0.6-0.5-1-0.5h-1.5V386.3z"/>
		<path class="st2" d="M-153.4,387.6h-3.8v3.2h4.5v1.8h-6.7v-11.4h6.7v1.8h-4.5v2.8h3.8V387.6z"/>
	</g>
	<g>
		<path class="st2" d="M-203.6,400.3L-203.6,400.3l0.8-4.5h1.3l-1.4,7.1h-1.3l-1-4.4l0,0l-1,4.4h-1.3l-1.4-7.1h1.3l0.8,4.5l0,0
			l1-4.5h1L-203.6,400.3z"/>
		<path class="st2" d="M-195.7,402.9h-1.3V400h-2.2v2.9h-1.4v-7.1h1.4v3.1h2.2v-3.1h1.4L-195.7,402.9L-195.7,402.9z"/>
		<path class="st2" d="M-191.2,401.4h-1.9l-0.4,1.5h-1.4l2-7.1h1.4l2,7.1h-1.4L-191.2,401.4z M-192.8,400.3h1.3l-0.6-2.5l0,0
			L-192.8,400.3z"/>
		<path class="st2" d="M-185.1,396.9h-1.6v6h-1.4v-6h-1.6v-1.1h4.6V396.9z"/>
		<path class="st2" d="M-180.1,398.8L-180.1,398.8l1.2-3h1.5l-2,4.6v2.5h-1.4v-2.6l-2-4.5h1.5L-180.1,398.8z"/>
		<path class="st2" d="M-172.1,400.4c0,0.8-0.2,1.5-0.7,2s-1.1,0.7-1.8,0.7c-0.7,0-1.4-0.2-1.8-0.7c-0.4-0.5-0.7-1.1-0.7-2v-2
			c0-0.8,0.2-1.5,0.7-2s1-0.7,1.8-0.7c0.8,0,1.4,0.2,1.8,0.7c0.4,0.5,0.7,1.1,0.7,2V400.4z M-173.5,398.3c0-0.5-0.1-0.9-0.3-1.2
			c-0.2-0.3-0.5-0.4-0.8-0.4c-0.4,0-0.6,0.1-0.8,0.4c-0.2,0.3-0.3,0.6-0.3,1.2v2c0,0.5,0.1,0.9,0.3,1.2s0.5,0.4,0.8,0.4
			c0.4,0,0.6-0.1,0.8-0.4s0.3-0.6,0.3-1.2V398.3z"/>
		<path class="st2" d="M-166.4,395.8v4.8c0,0.8-0.2,1.3-0.7,1.8c-0.4,0.4-1,0.6-1.7,0.6c-0.7,0-1.3-0.2-1.7-0.6s-0.7-1-0.7-1.8v-4.8
			h1.4v4.8c0,0.4,0.1,0.8,0.3,1c0.2,0.2,0.4,0.3,0.8,0.3c0.3,0,0.6-0.1,0.8-0.3c0.2-0.2,0.3-0.5,0.3-1v-4.8H-166.4z"/>
		<path class="st2" d="M-161.4,395.8l1.3,5.2l0,0l1.3-5.2h1.8v7.1h-1.4v-2.1l0.1-2.8l0,0l-1.4,4.8h-0.9l-1.3-4.8l0,0l0.1,2.7v2.1
			h-1.4v-7.1L-161.4,395.8L-161.4,395.8z"/>
		<path class="st2" d="M-152.6,401.4h-1.9l-0.4,1.5h-1.4l2-7.1h1.4l2,7.1h-1.4L-152.6,401.4z M-154.2,400.3h1.3l-0.6-2.5l0,0
			L-154.2,400.3z"/>
		<path class="st2" d="M-148.1,400h-0.6v3h-1.4v-7.1h1.4v2.9h0.4l1.4-2.9h1.7l-1.9,3.2l2.1,3.9h-1.7L-148.1,400z"/>
		<path class="st2" d="M-140.5,399.8h-2.4v2h2.8v1.1h-4.2v-7.1h4.2v1.1h-2.8v1.8h2.4V399.8z"/>
	</g>
</g>
</svg>
